<?xml version="1.0" encoding="UTF-8" standalone="no"?>
<!-- Created using Krita: https://krita.org -->

<svg
   width="300"
   height="300"
   viewBox="0 0 300 300"
   version="1.1"
   id="svg7651"
   sodipodi:docname="particule_paix_300x.svg"
   inkscape:version="1.2.2 (b0a8486541, 2022-12-01)"
   inkscape:export-filename="../../Images/Sceptiques/Particules/particule_toilette_300x.svg"
   inkscape:export-xdpi="96"
   inkscape:export-ydpi="96"
   xml:space="preserve"
   xmlns:inkscape="http://www.inkscape.org/namespaces/inkscape"
   xmlns:sodipodi="http://sodipodi.sourceforge.net/DTD/sodipodi-0.dtd"
   xmlns:xlink="http://www.w3.org/1999/xlink"
   xmlns="http://www.w3.org/2000/svg"
   xmlns:svg="http://www.w3.org/2000/svg"><sodipodi:namedview
     id="namedview7653"
     pagecolor="#ffffff"
     bordercolor="#000000"
     borderopacity="0.25"
     inkscape:showpageshadow="2"
     inkscape:pageopacity="0.0"
     inkscape:pagecheckerboard="0"
     inkscape:deskcolor="#d1d1d1"
     inkscape:document-units="px"
     showgrid="false"
     inkscape:zoom="0.24884096"
     inkscape:cx="-896.15472"
     inkscape:cy="287.33212"
     inkscape:window-width="1920"
     inkscape:window-height="982"
     inkscape:window-x="1920"
     inkscape:window-y="1080"
     inkscape:window-maximized="1"
     inkscape:current-layer="svg7651" /><defs
     id="defs7630"><linearGradient
       inkscape:collect="always"
       id="linearGradient4418"><stop
         style="stop-color:#ffeb0c;stop-opacity:1;"
         offset="0"
         id="stop4414" /><stop
         style="stop-color:#ffeb0c;stop-opacity:0;"
         offset="1"
         id="stop4416" /></linearGradient><linearGradient
       id="linearGradient4397"
       inkscape:swatch="solid"><stop
         style="stop-color:#ffeb0c;stop-opacity:1;"
         offset="0"
         id="stop4395" /></linearGradient><linearGradient
       inkscape:collect="always"
       xlink:href="#linearGradient4418"
       id="linearGradient4420"
       x1="8.5"
       y1="125"
       x2="241.5"
       y2="125"
       gradientUnits="userSpaceOnUse" /></defs><g
     fill="none"
     stroke="#000000"
     stroke-width="21"
     id="g1966"
     transform="matrix(1.2613038,0,0,1.2613038,-7.7309558,-7.5983737)"
     style="stroke:#fff501;stroke-opacity:1"><circle
       cx="125"
       cy="125"
       r="106"
       id="circle1962"
       style="stroke:#fff501;stroke-opacity:1" /><path
       d="m 125,19 v 212 m 0,-106 -75,75 m 75,-75 75,75"
       id="path1964"
       style="display:inline;stroke:#fff501;stroke-opacity:1" /></g><g
     fill="none"
     stroke="#000000"
     stroke-width="21"
     id="g2398"
     transform="matrix(1.2864727,0,0,1.2864727,-10.839019,-10.708478)"
     style="display:none;fill:none;fill-opacity:1;stroke:#ffeb0c;stroke-opacity:1"><path
       id="circle2394"
       d="M 231,125 C 231,183.54218 183.54218,231 125,231 66.457817,231 19,183.54218 19,125 19,66.457817 66.457817,19 125,19 c 58.54218,0 106,47.457817 106,106 z"
       style="stroke:url(#linearGradient4420)"
       sodipodi:nodetypes="sssss" /><path
       d="m 125,19 v 212 m 0,-106 -75,75 m 75,-75 75,75"
       id="path2396"
       style="display:inline;opacity:1;fill:none;fill-opacity:1;stroke:#ffeb0c;stroke-opacity:1" /></g><path
     style="opacity:1;fill:none;fill-opacity:1;stroke:#870cff;stroke-width:6.1895;stroke-linecap:round;stroke-linejoin:round;stroke-dasharray:none;stroke-opacity:1"
     d="M 141.99996,296.5281 C 122.78708,295.48841 104.23658,290.74318 86.949253,282.44612 27.767347,254.04175 -5.1999559,191.09843 5.1904243,126.34685 11.593642,86.44278 34.73426,50.71247 68.930671,27.928625 88.095106,15.160045 108.50407,7.5649786 132.1442,4.4041045 c 8.0864,-1.0812156 27.54266,-1.0747459 35.72501,0.011879 60.78035,8.0716975 109.54277,51.2633295 124.33534,110.1308565 5.37278,21.38116 5.75594,45.03302 1.08078,66.71544 -8.46309,39.25008 -33.68037,74.22529 -68.36655,94.82131 -25.08592,14.89554 -53.94956,22.01218 -82.91882,20.44451 z m -5.3284,-92.54035 -0.11776,-22.27434 -31.21279,31.21537 -31.212776,31.21536 3.780161,2.79973 c 11.768887,8.71653 25.711745,15.53197 39.611595,19.36266 5.22376,1.43963 13.89073,3.18054 17.67227,3.54979 l 1.36154,0.13294 0.11776,-21.86358 c 0.0648,-12.02498 0.0648,-31.88704 0,-44.13793 z m 36.948,64.40759 c 16.19812,-3.06323 33.9446,-10.86021 47.67662,-20.94689 2.06673,-1.51808 3.90602,-2.89339 4.08734,-3.05626 0.18131,-0.16285 -13.75745,-14.38209 -30.97503,-31.59831 l -31.30467,-31.30221 v 44.28714 44.28714 l 2.83654,-0.3774 c 1.5601,-0.20758 5.01574,-0.78951 7.6792,-1.29321 z M 136.78072,87.387875 V 30.046214 l -2.3827,0.303647 c -1.31048,0.167006 -5.42268,0.905907 -9.13821,1.642002 -17.89543,3.54531 -36.508437,12.367568 -51.336828,24.33281 -5.112118,4.125044 -14.608311,13.666262 -18.534727,18.622619 -21.383923,26.993138 -30.14287,61.575758 -24.303532,95.956698 3.043713,17.92083 10.876578,36.21117 21.884497,51.10201 l 2.776021,3.75522 40.517741,-40.51584 40.517738,-40.51585 z M 249.07753,218.93153 c 28.16927,-40.34945 28.71135,-94.51486 1.35806,-135.700099 -6.4433,-9.70155 -17.23644,-21.385434 -26.0625,-28.213414 -14.18525,-10.973946 -31.67129,-19.253955 -48.10772,-22.780022 -3.49688,-0.750175 -11.58287,-2.101527 -12.59424,-2.10478 -0.45086,-0.0015 -0.56731,11.759202 -0.56731,57.295351 v 57.297174 l 40.46979,40.47169 40.46979,40.47169 1.3289,-1.66687 c 0.73089,-0.91678 2.39825,-3.19861 3.70523,-5.07072 z"
     id="path5314" /></svg>
