<?xml version="1.0" encoding="UTF-8" standalone="no"?>
<!-- Created with Inkscape (http://www.inkscape.org/) -->

<svg
   width="1134.1671"
   height="852.90674"
   viewBox="0 0 1134.1671 852.90673"
   version="1.1"
   id="svg14355"
   sodipodi:docname="breaqueer_logo.svg"
   inkscape:version="1.2.2 (b0a8486541, 2022-12-01)"
   xmlns:inkscape="http://www.inkscape.org/namespaces/inkscape"
   xmlns:sodipodi="http://sodipodi.sourceforge.net/DTD/sodipodi-0.dtd"
   xmlns:xlink="http://www.w3.org/1999/xlink"
   xmlns="http://www.w3.org/2000/svg"
   xmlns:svg="http://www.w3.org/2000/svg">
  <sodipodi:namedview
     id="namedview14357"
     pagecolor="#ffffff"
     bordercolor="#000000"
     borderopacity="0.25"
     inkscape:showpageshadow="2"
     inkscape:pageopacity="0.0"
     inkscape:pagecheckerboard="0"
     inkscape:deskcolor="#d1d1d1"
     inkscape:document-units="px"
     showgrid="false"
     inkscape:zoom="0.66870507"
     inkscape:cx="657.98814"
     inkscape:cy="522.65194"
     inkscape:window-width="1920"
     inkscape:window-height="982"
     inkscape:window-x="1920"
     inkscape:window-y="1080"
     inkscape:window-maximized="1"
     inkscape:current-layer="layer1" />
  <defs
     id="defs14352">
    <pattern
       inkscape:collect="always"
       xlink:href="#Polkadots-med"
       id="pattern3984"
       patternTransform="scale(10,8.5082266)" />
    <pattern
       inkscape:collect="always"
       patternUnits="userSpaceOnUse"
       width="10"
       height="10"
       patternTransform="translate(0,0) scale(10,10)"
       id="Polkadots-med"
       inkscape:stockid="Polka dots, medium">
      <circle
         style="fill:black;stroke:none"
         cx="2.567"
         cy="0.810"
         r="0.15"
         id="circle10159" />
      <circle
         style="fill:black;stroke:none"
         cx="3.048"
         cy="2.33"
         r="0.15"
         id="circle10161" />
      <circle
         style="fill:black;stroke:none"
         cx="4.418"
         cy="2.415"
         r="0.15"
         id="circle10163" />
      <circle
         style="fill:black;stroke:none"
         cx="1.844"
         cy="3.029"
         r="0.15"
         id="circle10165" />
      <circle
         style="fill:black;stroke:none"
         cx="6.08"
         cy="1.363"
         r="0.15"
         id="circle10167" />
      <circle
         style="fill:black;stroke:none"
         cx="5.819"
         cy="4.413"
         r="0.15"
         id="circle10169" />
      <circle
         style="fill:black;stroke:none"
         cx="4.305"
         cy="4.048"
         r="0.15"
         id="circle10171" />
      <circle
         style="fill:black;stroke:none"
         cx="5.541"
         cy="3.045"
         r="0.15"
         id="circle10173" />
      <circle
         style="fill:black;stroke:none"
         cx="4.785"
         cy="5.527"
         r="0.15"
         id="circle10175" />
      <circle
         style="fill:black;stroke:none"
         cx="2.667"
         cy="5.184"
         r="0.15"
         id="circle10177" />
      <circle
         style="fill:black;stroke:none"
         cx="7.965"
         cy="1.448"
         r="0.15"
         id="circle10179" />
      <circle
         style="fill:black;stroke:none"
         cx="7.047"
         cy="5.049"
         r="0.15"
         id="circle10181" />
      <circle
         style="fill:black;stroke:none"
         cx="4.340"
         cy="0.895"
         r="0.15"
         id="circle10183" />
      <circle
         style="fill:black;stroke:none"
         cx="7.125"
         cy="0.340"
         r="0.15"
         id="circle10185" />
      <circle
         style="fill:black;stroke:none"
         cx="9.550"
         cy="1.049"
         r="0.15"
         id="circle10187" />
      <circle
         style="fill:black;stroke:none"
         cx="7.006"
         cy="2.689"
         r="0.15"
         id="circle10189" />
      <circle
         style="fill:black;stroke:none"
         cx="8.909"
         cy="2.689"
         r="0.15"
         id="circle10191" />
      <circle
         style="fill:black;stroke:none"
         cx="9.315"
         cy="4.407"
         r="0.15"
         id="circle10193" />
      <circle
         style="fill:black;stroke:none"
         cx="7.820"
         cy="3.870"
         r="0.15"
         id="circle10195" />
      <circle
         style="fill:black;stroke:none"
         cx="8.270"
         cy="5.948"
         r="0.15"
         id="circle10197" />
      <circle
         style="fill:black;stroke:none"
         cx="7.973"
         cy="7.428"
         r="0.15"
         id="circle10199" />
      <circle
         style="fill:black;stroke:none"
         cx="9.342"
         cy="8.072"
         r="0.15"
         id="circle10201" />
      <circle
         style="fill:black;stroke:none"
         cx="8.206"
         cy="9.315"
         r="0.15"
         id="circle10203" />
      <circle
         style="fill:black;stroke:none"
         cx="9.682"
         cy="9.475"
         r="0.15"
         id="circle10205" />
      <circle
         style="fill:black;stroke:none"
         cx="9.688"
         cy="6.186"
         r="0.15"
         id="circle10207" />
      <circle
         style="fill:black;stroke:none"
         cx="3.379"
         cy="6.296"
         r="0.15"
         id="circle10209" />
      <circle
         style="fill:black;stroke:none"
         cx="2.871"
         cy="8.204"
         r="0.15"
         id="circle10211" />
      <circle
         style="fill:black;stroke:none"
         cx="4.59"
         cy="8.719"
         r="0.15"
         id="circle10213" />
      <circle
         style="fill:black;stroke:none"
         cx="3.181"
         cy="9.671"
         r="0.15"
         id="circle10215" />
      <circle
         style="fill:black;stroke:none"
         cx="5.734"
         cy="7.315"
         r="0.15"
         id="circle10217" />
      <circle
         style="fill:black;stroke:none"
         cx="6.707"
         cy="6.513"
         r="0.15"
         id="circle10219" />
      <circle
         style="fill:black;stroke:none"
         cx="5.730"
         cy="9.670"
         r="0.15"
         id="circle10221" />
      <circle
         style="fill:black;stroke:none"
         cx="6.535"
         cy="8.373"
         r="0.15"
         id="circle10223" />
      <circle
         style="fill:black;stroke:none"
         cx="4.37"
         cy="7.154"
         r="0.15"
         id="circle10225" />
      <circle
         style="fill:black;stroke:none"
         cx="0.622"
         cy="7.25"
         r="0.15"
         id="circle10227" />
      <circle
         style="fill:black;stroke:none"
         cx="0.831"
         cy="5.679"
         r="0.15"
         id="circle10229" />
      <circle
         style="fill:black;stroke:none"
         cx="1.257"
         cy="8.519"
         r="0.15"
         id="circle10231" />
      <circle
         style="fill:black;stroke:none"
         cx="1.989"
         cy="6.877"
         r="0.15"
         id="circle10233" />
      <circle
         style="fill:black;stroke:none"
         cx="0.374"
         cy="3.181"
         r="0.15"
         id="circle10235" />
      <circle
         style="fill:black;stroke:none"
         cx="1.166"
         cy="1.664"
         r="0.15"
         id="circle10237" />
      <circle
         style="fill:black;stroke:none"
         cx="1.151"
         cy="0.093"
         r="0.15"
         id="circle10239" />
      <circle
         style="fill:black;stroke:none"
         cx="1.151"
         cy="10.093"
         r="0.15"
         id="circle10241" />
      <circle
         style="fill:black;stroke:none"
         cx="1.302"
         cy="4.451"
         r="0.15"
         id="circle10243" />
      <circle
         style="fill:black;stroke:none"
         cx="3.047"
         cy="3.763"
         r="0.15"
         id="circle10245" />
    </pattern>
    <rect
       x="560.23187"
       y="-106.78907"
       width="356.5112"
       height="116.64652"
       id="rect5173" />
    <rect
       x="47.644356"
       y="52.573082"
       width="1097.4631"
       height="510.94464"
       id="rect1778" />
    <pattern
       inkscape:collect="always"
       xlink:href="#Packedcircles"
       id="pattern5240"
       patternTransform="matrix(9.2135759,0,0,9.2135759,-105.08126,90.506448)" />
    <pattern
       inkscape:collect="always"
       patternUnits="userSpaceOnUse"
       width="1"
       height="1.73205080756"
       patternTransform="translate(0,0) scale(10,10)"
       id="Packedcircles"
       inkscape:stockid="Packed circles">
      <circle
         style="fill:black;stroke:none"
         cx="0"
         cy="0.5"
         r="0.5"
         id="circle4338" />
      <circle
         style="fill:black;stroke:none"
         cx="1"
         cy="0.5"
         r="0.5"
         id="circle4340" />
      <circle
         style="fill:black;stroke:none"
         cx="0.5"
         cy="1.36602540378"
         r="0.5"
         id="circle4342" />
      <circle
         style="fill:black;stroke:none"
         cx="0.5"
         cy="-0.366025403784"
         r="0.5"
         id="circle4344" />
    </pattern>
    <linearGradient
       inkscape:collect="always"
       id="linearGradient2534">
      <stop
         style="stop-color:#ff5454;stop-opacity:1;"
         offset="0"
         id="stop2530" />
      <stop
         style="stop-color:#fffcfc;stop-opacity:0;"
         offset="1"
         id="stop2532" />
    </linearGradient>
    <inkscape:perspective
       sodipodi:type="inkscape:persp3d"
       inkscape:vp_x="461.43651 : -10.633554 : 1"
       inkscape:vp_y="-67.717054 : 997.70456 : 0"
       inkscape:vp_z="1592.1684 : 66.112446 : 1"
       inkscape:persp3d-origin="1038.0887 : -138.54463 : 1"
       id="perspective14564" />
    <radialGradient
       inkscape:collect="always"
       xlink:href="#linearGradient2534"
       id="radialGradient2536"
       cx="438.00504"
       cy="197.16064"
       fx="438.00504"
       fy="197.16064"
       r="142.7897"
       gradientUnits="userSpaceOnUse"
       gradientTransform="matrix(0.63055467,0.62869092,-0.65053325,0.65246173,185.40579,-64.759635)" />
    <rect
       x="47.644356"
       y="52.573082"
       width="1097.4631"
       height="510.94464"
       id="rect5167" />
  </defs>
  <g
     inkscape:groupmode="layer"
     id="layer3"
     inkscape:label="Calque 3"
     transform="translate(0.44445531)">
    <rect
       style="opacity:0.315565;fill:url(#pattern3984);fill-opacity:1;stroke-width:7.59651;stroke-linecap:round;stroke-linejoin:round"
       id="rect6228"
       width="1132.0178"
       height="852.90674"
       x="1.704846"
       y="0" />
  </g>
  <g
     inkscape:label="Calque 1"
     inkscape:groupmode="layer"
     id="layer1"
     transform="translate(1.2296736)">
    <rect
       style="display:inline;opacity:0.620991;fill:#ff9fcb;fill-opacity:1;stroke:#e9665e;stroke-width:26.2729;stroke-linecap:square;stroke-dasharray:none;stroke-dashoffset:0;stroke-opacity:1;paint-order:markers stroke fill"
       id="rect14984"
       width="201.12921"
       height="56.930229"
       x="484.69431"
       y="42.853642"
       ry="0"
       transform="matrix(0.96993707,0.24335588,0,1,0,0)" />
    <rect
       style="display:inline;opacity:0.620991;fill:#cd9fff;fill-opacity:1;stroke:#9951e7;stroke-width:26.2729;stroke-linecap:square;stroke-dasharray:none;stroke-dashoffset:0;stroke-opacity:1;paint-order:markers stroke fill"
       id="rect14984-3"
       width="201.12921"
       height="56.930229"
       x="485.13989"
       y="-44.268108"
       ry="0"
       transform="matrix(0.96993707,0.24335588,0,1,0,0)" />
    <rect
       style="display:inline;opacity:0.620991;fill:#ff9fcb;fill-opacity:1;stroke:#e9665e;stroke-width:26.2729;stroke-linecap:square;stroke-dasharray:none;stroke-dashoffset:0;stroke-opacity:1;paint-order:markers stroke fill"
       id="rect14984-3-7"
       width="201.12921"
       height="56.930229"
       x="951.2345"
       y="392.81293"
       ry="0"
       transform="matrix(0.96993707,0.24335588,0,1,0,0)" />
    <rect
       style="display:inline;opacity:0.620991;fill:#cd9fff;fill-opacity:1;stroke:#9951e7;stroke-width:26.2729;stroke-linecap:square;stroke-dasharray:none;stroke-dashoffset:0;stroke-opacity:1;paint-order:markers stroke fill"
       id="rect14984-3-5"
       width="201.12921"
       height="56.930229"
       x="951.14783"
       y="305.85645"
       ry="0"
       transform="matrix(0.96993707,0.24335588,0,1,0,0)" />
    <rect
       style="display:inline;opacity:0.620991;fill:#9fcbff;fill-opacity:1;stroke:#6551e7;stroke-width:26.2729;stroke-linecap:square;stroke-dasharray:none;stroke-dashoffset:0;stroke-opacity:1;paint-order:markers stroke fill"
       id="rect14984-3-9"
       width="201.12921"
       height="56.930229"
       x="951.38916"
       y="217.00549"
       ry="0"
       transform="matrix(0.96993707,0.24335588,0,1,0,0)" />
    <rect
       style="display:inline;opacity:0.620991;fill:#a4ff98;fill-opacity:1;stroke:#2cd91e;stroke-width:26.2729;stroke-linecap:square;stroke-dasharray:none;stroke-dashoffset:0;stroke-opacity:1;paint-order:markers stroke fill"
       id="rect14984-3-2"
       width="201.12921"
       height="56.930229"
       x="951.63055"
       y="129.47583"
       ry="0"
       transform="matrix(0.96993707,0.24335588,0,1,0,0)" />
    <rect
       style="display:inline;opacity:0.620991;fill:#fcff6e;fill-opacity:1;stroke:#d1c31d;stroke-width:26.2729;stroke-linecap:square;stroke-dasharray:none;stroke-dashoffset:0;stroke-opacity:1;paint-order:markers stroke fill"
       id="rect14984-3-28"
       width="201.12921"
       height="56.930229"
       x="952.04346"
       y="43.190952"
       ry="0"
       transform="matrix(0.96993707,0.24335588,0,1,0,0)" />
    <rect
       style="display:inline;opacity:0.620991;fill:#fcff6e;fill-opacity:1;stroke:#d1c31d;stroke-width:26.2729;stroke-linecap:square;stroke-dasharray:none;stroke-dashoffset:0;stroke-opacity:1;paint-order:markers stroke fill"
       id="rect14984-3-97"
       width="201.12921"
       height="56.930229"
       x="16.138535"
       y="393.1427"
       ry="0"
       transform="matrix(0.96993707,0.24335588,0,1,0,0)" />
    <rect
       style="display:inline;opacity:0.620991;fill:#ffab7e;fill-opacity:1;stroke:#e17c25;stroke-width:26.2729;stroke-linecap:square;stroke-dasharray:none;stroke-dashoffset:0;stroke-opacity:1;paint-order:markers stroke fill"
       id="rect14984-3-3"
       width="201.12921"
       height="56.930229"
       x="16.295282"
       y="305.67181"
       ry="0"
       transform="matrix(0.96993707,0.24335588,0,1,0,0)" />
    <rect
       style="display:inline;opacity:0.620991;fill:#ffab7e;fill-opacity:1;stroke:#e17c25;stroke-width:26.2729;stroke-linecap:square;stroke-dasharray:none;stroke-dashoffset:0;stroke-opacity:1;paint-order:markers stroke fill"
       id="rect14984-3-3-5"
       width="201.12921"
       height="56.930229"
       x="951.28821"
       y="479.91089"
       ry="0"
       transform="matrix(0.96993707,0.24335588,0,1,0,0)" />
    <rect
       style="display:inline;opacity:0.620991;fill:#ff9fcb;fill-opacity:1;stroke:#e9665e;stroke-width:26.2729;stroke-linecap:square;stroke-dasharray:none;stroke-dashoffset:0;stroke-opacity:1;paint-order:markers stroke fill"
       id="rect14984-3-6"
       width="201.12921"
       height="56.930229"
       x="16.295282"
       y="217.50031"
       ry="0"
       transform="matrix(0.96993707,0.24335588,0,1,0,0)" />
    <rect
       style="display:inline;opacity:0.620991;fill:#cd9fff;fill-opacity:1;stroke:#9951e7;stroke-width:26.2729;stroke-linecap:square;stroke-dasharray:none;stroke-dashoffset:0;stroke-opacity:1;paint-order:markers stroke fill"
       id="rect14984-3-1"
       width="201.12921"
       height="56.930229"
       x="16.955698"
       y="129.56232"
       ry="0"
       transform="matrix(0.96993707,0.24335588,0,1,0,0)" />
    <rect
       style="display:inline;opacity:0.620991;fill:#9fcbff;fill-opacity:1;stroke:#6551e7;stroke-width:26.2729;stroke-linecap:square;stroke-dasharray:none;stroke-dashoffset:0;stroke-opacity:1;paint-order:markers stroke fill"
       id="rect14984-3-29"
       width="201.12921"
       height="56.930229"
       x="16.955698"
       y="42.470417"
       ry="0"
       transform="matrix(0.96993707,0.24335588,0,1,0,0)" />
    <rect
       style="display:inline;opacity:0.620991;fill:#ffab7e;fill-opacity:1;stroke:#e17c25;stroke-width:26.2729;stroke-linecap:square;stroke-dasharray:none;stroke-dashoffset:0;stroke-opacity:1;paint-order:markers stroke fill"
       id="rect14984-3-31"
       width="201.12921"
       height="56.930229"
       x="717.96783"
       y="43.141788"
       ry="0"
       transform="matrix(0.96993707,0.24335588,0,1,0,0)" />
    <rect
       style="display:inline;opacity:0.620991;fill:#cd9fff;fill-opacity:1;stroke:#9951e7;stroke-width:26.2729;stroke-linecap:square;stroke-dasharray:none;stroke-dashoffset:0;stroke-opacity:1;paint-order:markers stroke fill"
       id="rect14984-3-94"
       width="201.12921"
       height="56.930229"
       x="250.94672"
       y="42.568531"
       ry="0"
       transform="matrix(0.96993707,0.24335588,0,1,0,0)" />
    <rect
       style="display:inline;opacity:0.620991;fill:#fcff6e;fill-opacity:1;stroke:#d1c31d;stroke-width:26.2729;stroke-linecap:square;stroke-dasharray:none;stroke-dashoffset:0;stroke-opacity:1;paint-order:markers stroke fill"
       id="rect14984-3-78"
       width="201.12921"
       height="56.930229"
       x="717.72644"
       y="129.47583"
       ry="0"
       transform="matrix(0.96993707,0.24335588,0,1,0,0)" />
    <rect
       style="display:inline;opacity:0.620991;fill:#ffab7e;fill-opacity:1;stroke:#e17c25;stroke-width:26.2729;stroke-linecap:square;stroke-dasharray:none;stroke-dashoffset:0;stroke-opacity:1;paint-order:markers stroke fill"
       id="rect14984-3-4"
       width="201.12921"
       height="56.930229"
       x="484.21588"
       y="129.25195"
       ry="0"
       transform="matrix(0.96993707,0.24335588,0,1,0,0)" />
    <rect
       style="display:inline;opacity:0.620991;fill:#ff9fcb;fill-opacity:1;stroke:#e9665e;stroke-width:26.2729;stroke-linecap:square;stroke-dasharray:none;stroke-dashoffset:0;stroke-opacity:1;paint-order:markers stroke fill"
       id="rect14984-3-50"
       width="201.12921"
       height="56.930229"
       x="250.75835"
       y="129.47583"
       ry="0"
       transform="matrix(0.96993707,0.24335588,0,1,0,0)" />
    <rect
       style="display:inline;opacity:0.620991;fill:#a4ff98;fill-opacity:1;stroke:#2cd91e;stroke-width:26.2729;stroke-linecap:square;stroke-dasharray:none;stroke-dashoffset:0;stroke-opacity:1;paint-order:markers stroke fill"
       id="rect14984-3-36"
       width="201.12921"
       height="56.930229"
       x="717.72644"
       y="217.5788"
       ry="0"
       transform="matrix(0.96993707,0.24335588,0,1,0,0)" />
    <rect
       style="display:inline;opacity:0.620991;fill:#fcff6e;fill-opacity:1;stroke:#d1c31d;stroke-width:26.2729;stroke-linecap:square;stroke-dasharray:none;stroke-dashoffset:0;stroke-opacity:1;paint-order:markers stroke fill"
       id="rect14984-3-10"
       width="201.12921"
       height="56.930229"
       x="484.02756"
       y="217.35492"
       ry="0"
       transform="matrix(0.96993707,0.24335588,0,1,0,0)" />
    <rect
       style="display:inline;opacity:0.620991;fill:#ffab7e;fill-opacity:1;stroke:#e17c25;stroke-width:26.2729;stroke-linecap:square;stroke-dasharray:none;stroke-dashoffset:0;stroke-opacity:1;paint-order:markers stroke fill"
       id="rect14984-3-63"
       width="201.12921"
       height="56.930229"
       x="250.56998"
       y="217.35492"
       ry="0"
       transform="matrix(0.96993707,0.24335588,0,1,0,0)" />
    <rect
       style="display:inline;opacity:0.620991;fill:#cd9fff;fill-opacity:1;stroke:#9951e7;stroke-width:26.2729;stroke-linecap:square;stroke-dasharray:none;stroke-dashoffset:0;stroke-opacity:1;paint-order:markers stroke fill"
       id="rect14984-3-20"
       width="201.12921"
       height="56.930229"
       x="717.48505"
       y="392.63818"
       ry="0"
       transform="matrix(0.96993707,0.24335588,0,1,0,0)" />
    <rect
       style="display:inline;opacity:0.620991;fill:#9fcbff;fill-opacity:1;stroke:#6551e7;stroke-width:26.2729;stroke-linecap:square;stroke-dasharray:none;stroke-dashoffset:0;stroke-opacity:1;paint-order:markers stroke fill"
       id="rect14984-3-61"
       width="201.12921"
       height="56.930229"
       x="717.48505"
       y="305.2832"
       ry="0"
       transform="matrix(0.96993707,0.24335588,0,1,0,0)" />
    <rect
       style="display:inline;opacity:0.620991;fill:#9fcbff;fill-opacity:1;stroke:#6551e7;stroke-width:26.2729;stroke-linecap:square;stroke-dasharray:none;stroke-dashoffset:0;stroke-opacity:1;paint-order:markers stroke fill"
       id="rect14984-3-55"
       width="201.12921"
       height="56.930229"
       x="484.29538"
       y="393.04388"
       ry="0"
       transform="matrix(0.96993707,0.24335588,0,1,0,0)" />
    <rect
       style="display:inline;opacity:0.620991;fill:#a4ff98;fill-opacity:1;stroke:#2cd91e;stroke-width:26.2729;stroke-linecap:square;stroke-dasharray:none;stroke-dashoffset:0;stroke-opacity:1;paint-order:markers stroke fill"
       id="rect14984-3-47"
       width="201.12921"
       height="56.930229"
       x="484.24393"
       y="305.41119"
       ry="0"
       transform="matrix(0.96993707,0.24335588,0,1,0,0)" />
    <rect
       style="display:inline;opacity:0.620991;fill:#fcff6e;fill-opacity:1;stroke:#d1c31d;stroke-width:26.2729;stroke-linecap:square;stroke-dasharray:none;stroke-dashoffset:0;stroke-opacity:1;paint-order:markers stroke fill"
       id="rect14984-3-65"
       width="201.12921"
       height="56.930229"
       x="250.38269"
       y="305.70609"
       ry="0"
       transform="matrix(0.96993707,0.24335588,0,1,0,0)" />
    <rect
       style="display:inline;opacity:0.620991;fill:#a4ff98;fill-opacity:1;stroke:#2cd91e;stroke-width:26.2729;stroke-linecap:square;stroke-dasharray:none;stroke-dashoffset:0;stroke-opacity:1;paint-order:markers stroke fill"
       id="rect14984-3-69"
       width="201.12921"
       height="56.930229"
       x="249.82565"
       y="393.25891"
       ry="0"
       transform="matrix(0.96993707,0.24335588,0,1,0,0)" />
    <rect
       style="display:inline;opacity:0.620991;fill:#ff9fcb;fill-opacity:1;stroke:#e9665e;stroke-width:26.2729;stroke-linecap:square;stroke-dasharray:none;stroke-dashoffset:0;stroke-opacity:1;paint-order:markers stroke fill"
       id="rect14984-3-7-3"
       width="201.12921"
       height="56.930229"
       x="717.01892"
       y="479.69867"
       ry="0"
       transform="matrix(0.96993707,0.24335588,0,1,0,0)" />
    <rect
       style="display:inline;opacity:0.620991;fill:#cd9fff;fill-opacity:1;stroke:#9951e7;stroke-width:26.2729;stroke-linecap:square;stroke-dasharray:none;stroke-dashoffset:0;stroke-opacity:1;paint-order:markers stroke fill"
       id="rect14984-3-20-4"
       width="201.12921"
       height="56.930229"
       x="483.26959"
       y="479.52393"
       ry="0"
       transform="matrix(0.96993707,0.24335588,0,1,0,0)" />
    <rect
       style="display:inline;opacity:0.620991;fill:#9fcbff;fill-opacity:1;stroke:#6551e7;stroke-width:26.2729;stroke-linecap:square;stroke-dasharray:none;stroke-dashoffset:0;stroke-opacity:1;paint-order:markers stroke fill"
       id="rect14984-3-55-5"
       width="201.12921"
       height="56.930229"
       x="250.07988"
       y="479.92957"
       ry="0"
       transform="matrix(0.96993707,0.24335588,0,1,0,0)" />
    <rect
       style="display:inline;opacity:0.620991;fill:#a4ff98;fill-opacity:1;stroke:#2cd91e;stroke-width:26.2729;stroke-linecap:square;stroke-dasharray:none;stroke-dashoffset:0;stroke-opacity:1;paint-order:markers stroke fill"
       id="rect14984-3-69-2"
       width="201.12921"
       height="56.930229"
       x="15.610144"
       y="480.14459"
       ry="0"
       transform="matrix(0.96993707,0.24335588,0,1,0,0)" />
    <rect
       style="display:inline;opacity:0.620991;fill:#ff9fcb;fill-opacity:1;stroke:#e9665e;stroke-width:26.2729;stroke-linecap:square;stroke-dasharray:none;stroke-dashoffset:0;stroke-opacity:1;paint-order:markers stroke fill"
       id="rect14984-36"
       width="201.12921"
       height="56.930229"
       x="480.95282"
       y="41.173801"
       ry="0"
       transform="matrix(0.96993707,0.24335588,0,1,0,0)" />
    <rect
       style="display:inline;opacity:0.620991;fill:#cd9fff;fill-opacity:1;stroke:#9951e7;stroke-width:26.2729;stroke-linecap:square;stroke-dasharray:none;stroke-dashoffset:0;stroke-opacity:1;paint-order:markers stroke fill"
       id="rect14984-3-75"
       width="201.12921"
       height="56.930229"
       x="481.39838"
       y="-45.947948"
       ry="0"
       transform="matrix(0.96993707,0.24335588,0,1,0,0)" />
    <rect
       style="display:inline;opacity:0.620991;fill:#ff9fcb;fill-opacity:1;stroke:#e9665e;stroke-width:26.2729;stroke-linecap:square;stroke-dasharray:none;stroke-dashoffset:0;stroke-opacity:1;paint-order:markers stroke fill"
       id="rect14984-3-7-35"
       width="201.12921"
       height="56.930229"
       x="947.49298"
       y="391.13309"
       ry="0"
       transform="matrix(0.96993707,0.24335588,0,1,0,0)" />
    <rect
       style="display:inline;opacity:0.620991;fill:#cd9fff;fill-opacity:1;stroke:#9951e7;stroke-width:26.2729;stroke-linecap:square;stroke-dasharray:none;stroke-dashoffset:0;stroke-opacity:1;paint-order:markers stroke fill"
       id="rect14984-3-5-6"
       width="201.12921"
       height="56.930229"
       x="947.40631"
       y="304.17661"
       ry="0"
       transform="matrix(0.96993707,0.24335588,0,1,0,0)" />
    <rect
       style="display:inline;opacity:0.620991;fill:#9fcbff;fill-opacity:1;stroke:#6551e7;stroke-width:26.2729;stroke-linecap:square;stroke-dasharray:none;stroke-dashoffset:0;stroke-opacity:1;paint-order:markers stroke fill"
       id="rect14984-3-9-2"
       width="201.12921"
       height="56.930229"
       x="947.64764"
       y="215.32565"
       ry="0"
       transform="matrix(0.96993707,0.24335588,0,1,0,0)" />
    <rect
       style="display:inline;opacity:0.620991;fill:#a4ff98;fill-opacity:1;stroke:#2cd91e;stroke-width:26.2729;stroke-linecap:square;stroke-dasharray:none;stroke-dashoffset:0;stroke-opacity:1;paint-order:markers stroke fill"
       id="rect14984-3-2-9"
       width="201.12921"
       height="56.930229"
       x="947.8891"
       y="127.79599"
       ry="0"
       transform="matrix(0.96993707,0.24335588,0,1,0,0)" />
    <rect
       style="display:inline;opacity:0.620991;fill:#fcff6e;fill-opacity:1;stroke:#d1c31d;stroke-width:26.2729;stroke-linecap:square;stroke-dasharray:none;stroke-dashoffset:0;stroke-opacity:1;paint-order:markers stroke fill"
       id="rect14984-3-28-1"
       width="201.12921"
       height="56.930229"
       x="948.30194"
       y="41.511112"
       ry="0"
       transform="matrix(0.96993707,0.24335588,0,1,0,0)" />
    <rect
       style="display:inline;opacity:0.620991;fill:#fcff6e;fill-opacity:1;stroke:#d1c31d;stroke-width:26.2729;stroke-linecap:square;stroke-dasharray:none;stroke-dashoffset:0;stroke-opacity:1;paint-order:markers stroke fill"
       id="rect14984-3-97-2"
       width="201.12921"
       height="56.930229"
       x="12.397044"
       y="391.46286"
       ry="0"
       transform="matrix(0.96993707,0.24335588,0,1,0,0)" />
    <rect
       style="display:inline;opacity:0.620991;fill:#ffab7e;fill-opacity:1;stroke:#e17c25;stroke-width:26.2729;stroke-linecap:square;stroke-dasharray:none;stroke-dashoffset:0;stroke-opacity:1;paint-order:markers stroke fill"
       id="rect14984-3-3-7"
       width="201.12921"
       height="56.930229"
       x="12.553813"
       y="303.99197"
       ry="0"
       transform="matrix(0.96993707,0.24335588,0,1,0,0)" />
    <rect
       style="display:inline;opacity:0.620991;fill:#ffab7e;fill-opacity:1;stroke:#e17c25;stroke-width:26.2729;stroke-linecap:square;stroke-dasharray:none;stroke-dashoffset:0;stroke-opacity:1;paint-order:markers stroke fill"
       id="rect14984-3-3-5-0"
       width="201.12921"
       height="56.930229"
       x="947.54669"
       y="478.23105"
       ry="0"
       transform="matrix(0.96993707,0.24335588,0,1,0,0)" />
    <rect
       style="display:inline;opacity:0.620991;fill:#ff9fcb;fill-opacity:1;stroke:#e9665e;stroke-width:26.2729;stroke-linecap:square;stroke-dasharray:none;stroke-dashoffset:0;stroke-opacity:1;paint-order:markers stroke fill"
       id="rect14984-3-6-9"
       width="201.12921"
       height="56.930229"
       x="12.553813"
       y="215.82047"
       ry="0"
       transform="matrix(0.96993707,0.24335588,0,1,0,0)" />
    <rect
       style="display:inline;opacity:0.620991;fill:#cd9fff;fill-opacity:1;stroke:#9951e7;stroke-width:26.2729;stroke-linecap:square;stroke-dasharray:none;stroke-dashoffset:0;stroke-opacity:1;paint-order:markers stroke fill"
       id="rect14984-3-1-3"
       width="201.12921"
       height="56.930229"
       x="13.214213"
       y="127.88248"
       ry="0"
       transform="matrix(0.96993707,0.24335588,0,1,0,0)" />
    <rect
       style="display:inline;opacity:0.620991;fill:#9fcbff;fill-opacity:1;stroke:#6551e7;stroke-width:26.2729;stroke-linecap:square;stroke-dasharray:none;stroke-dashoffset:0;stroke-opacity:1;paint-order:markers stroke fill"
       id="rect14984-3-29-6"
       width="201.12921"
       height="56.930229"
       x="13.214213"
       y="40.790577"
       ry="0"
       transform="matrix(0.96993707,0.24335588,0,1,0,0)" />
    <rect
       style="display:inline;opacity:0.620991;fill:#ffab7e;fill-opacity:1;stroke:#e17c25;stroke-width:26.2729;stroke-linecap:square;stroke-dasharray:none;stroke-dashoffset:0;stroke-opacity:1;paint-order:markers stroke fill"
       id="rect14984-3-31-0"
       width="201.12921"
       height="56.930229"
       x="714.22638"
       y="41.461948"
       ry="0"
       transform="matrix(0.96993707,0.24335588,0,1,0,0)" />
    <rect
       style="display:inline;opacity:0.620991;fill:#cd9fff;fill-opacity:1;stroke:#9951e7;stroke-width:26.2729;stroke-linecap:square;stroke-dasharray:none;stroke-dashoffset:0;stroke-opacity:1;paint-order:markers stroke fill"
       id="rect14984-3-94-6"
       width="201.12921"
       height="56.930229"
       x="247.20522"
       y="40.888691"
       ry="0"
       transform="matrix(0.96993707,0.24335588,0,1,0,0)" />
    <rect
       style="display:inline;opacity:0.620991;fill:#fcff6e;fill-opacity:1;stroke:#d1c31d;stroke-width:26.2729;stroke-linecap:square;stroke-dasharray:none;stroke-dashoffset:0;stroke-opacity:1;paint-order:markers stroke fill"
       id="rect14984-3-78-2"
       width="201.12921"
       height="56.930229"
       x="713.98492"
       y="127.79599"
       ry="0"
       transform="matrix(0.96993707,0.24335588,0,1,0,0)" />
    <rect
       style="display:inline;opacity:0.620991;fill:#ffab7e;fill-opacity:1;stroke:#e17c25;stroke-width:26.2729;stroke-linecap:square;stroke-dasharray:none;stroke-dashoffset:0;stroke-opacity:1;paint-order:markers stroke fill"
       id="rect14984-3-4-6"
       width="201.12921"
       height="56.930229"
       x="480.47437"
       y="127.57211"
       ry="0"
       transform="matrix(0.96993707,0.24335588,0,1,0,0)" />
    <rect
       style="display:inline;opacity:0.620991;fill:#ff9fcb;fill-opacity:1;stroke:#e9665e;stroke-width:26.2729;stroke-linecap:square;stroke-dasharray:none;stroke-dashoffset:0;stroke-opacity:1;paint-order:markers stroke fill"
       id="rect14984-3-50-1"
       width="201.12921"
       height="56.930229"
       x="247.01686"
       y="127.79599"
       ry="0"
       transform="matrix(0.96993707,0.24335588,0,1,0,0)" />
    <rect
       style="display:inline;opacity:0.620991;fill:#a4ff98;fill-opacity:1;stroke:#2cd91e;stroke-width:26.2729;stroke-linecap:square;stroke-dasharray:none;stroke-dashoffset:0;stroke-opacity:1;paint-order:markers stroke fill"
       id="rect14984-3-36-8"
       width="201.12921"
       height="56.930229"
       x="713.98492"
       y="215.89896"
       ry="0"
       transform="matrix(0.96993707,0.24335588,0,1,0,0)" />
    <rect
       style="display:inline;opacity:0.620991;fill:#fcff6e;fill-opacity:1;stroke:#d1c31d;stroke-width:26.2729;stroke-linecap:square;stroke-dasharray:none;stroke-dashoffset:0;stroke-opacity:1;paint-order:markers stroke fill"
       id="rect14984-3-10-7"
       width="201.12921"
       height="56.930229"
       x="480.28607"
       y="215.67508"
       ry="0"
       transform="matrix(0.96993707,0.24335588,0,1,0,0)" />
    <rect
       style="display:inline;opacity:0.620991;fill:#ffab7e;fill-opacity:1;stroke:#e17c25;stroke-width:26.2729;stroke-linecap:square;stroke-dasharray:none;stroke-dashoffset:0;stroke-opacity:1;paint-order:markers stroke fill"
       id="rect14984-3-63-9"
       width="201.12921"
       height="56.930229"
       x="246.82851"
       y="215.67508"
       ry="0"
       transform="matrix(0.96993707,0.24335588,0,1,0,0)" />
    <rect
       style="display:inline;opacity:0.620991;fill:#cd9fff;fill-opacity:1;stroke:#9951e7;stroke-width:26.2729;stroke-linecap:square;stroke-dasharray:none;stroke-dashoffset:0;stroke-opacity:1;paint-order:markers stroke fill"
       id="rect14984-3-20-2"
       width="201.12921"
       height="56.930229"
       x="713.74359"
       y="390.95834"
       ry="0"
       transform="matrix(0.96993707,0.24335588,0,1,0,0)" />
    <rect
       style="display:inline;opacity:0.620991;fill:#9fcbff;fill-opacity:1;stroke:#6551e7;stroke-width:26.2729;stroke-linecap:square;stroke-dasharray:none;stroke-dashoffset:0;stroke-opacity:1;paint-order:markers stroke fill"
       id="rect14984-3-61-0"
       width="201.12921"
       height="56.930229"
       x="713.74359"
       y="303.60336"
       ry="0"
       transform="matrix(0.96993707,0.24335588,0,1,0,0)" />
    <rect
       style="display:inline;opacity:0.620991;fill:#9fcbff;fill-opacity:1;stroke:#6551e7;stroke-width:26.2729;stroke-linecap:square;stroke-dasharray:none;stroke-dashoffset:0;stroke-opacity:1;paint-order:markers stroke fill"
       id="rect14984-3-55-2"
       width="201.12921"
       height="56.930229"
       x="480.55389"
       y="391.36404"
       ry="0"
       transform="matrix(0.96993707,0.24335588,0,1,0,0)" />
    <rect
       style="display:inline;opacity:0.620991;fill:#a4ff98;fill-opacity:1;stroke:#2cd91e;stroke-width:26.2729;stroke-linecap:square;stroke-dasharray:none;stroke-dashoffset:0;stroke-opacity:1;paint-order:markers stroke fill"
       id="rect14984-3-47-3"
       width="201.12921"
       height="56.930229"
       x="480.50244"
       y="303.73135"
       ry="0"
       transform="matrix(0.96993707,0.24335588,0,1,0,0)" />
    <rect
       style="display:inline;opacity:0.620991;fill:#fcff6e;fill-opacity:1;stroke:#d1c31d;stroke-width:26.2729;stroke-linecap:square;stroke-dasharray:none;stroke-dashoffset:0;stroke-opacity:1;paint-order:markers stroke fill"
       id="rect14984-3-65-7"
       width="201.12921"
       height="56.930229"
       x="246.64119"
       y="304.02625"
       ry="0"
       transform="matrix(0.96993707,0.24335588,0,1,0,0)" />
    <rect
       style="display:inline;opacity:0.620991;fill:#a4ff98;fill-opacity:1;stroke:#2cd91e;stroke-width:26.2729;stroke-linecap:square;stroke-dasharray:none;stroke-dashoffset:0;stroke-opacity:1;paint-order:markers stroke fill"
       id="rect14984-3-69-5"
       width="201.12921"
       height="56.930229"
       x="246.08418"
       y="391.57907"
       ry="0"
       transform="matrix(0.96993707,0.24335588,0,1,0,0)" />
    <rect
       style="display:inline;opacity:0.620991;fill:#ff9fcb;fill-opacity:1;stroke:#e9665e;stroke-width:26.2729;stroke-linecap:square;stroke-dasharray:none;stroke-dashoffset:0;stroke-opacity:1;paint-order:markers stroke fill"
       id="rect14984-3-7-3-9"
       width="201.12921"
       height="56.930229"
       x="713.2774"
       y="478.01883"
       ry="0"
       transform="matrix(0.96993707,0.24335588,0,1,0,0)" />
    <rect
       style="display:inline;opacity:0.620991;fill:#cd9fff;fill-opacity:1;stroke:#9951e7;stroke-width:26.2729;stroke-linecap:square;stroke-dasharray:none;stroke-dashoffset:0;stroke-opacity:1;paint-order:markers stroke fill"
       id="rect14984-3-20-4-2"
       width="201.12921"
       height="56.930229"
       x="479.52808"
       y="477.84409"
       ry="0"
       transform="matrix(0.96993707,0.24335588,0,1,0,0)" />
    <rect
       style="display:inline;opacity:0.620991;fill:#9fcbff;fill-opacity:1;stroke:#6551e7;stroke-width:26.2729;stroke-linecap:square;stroke-dasharray:none;stroke-dashoffset:0;stroke-opacity:1;paint-order:markers stroke fill"
       id="rect14984-3-55-5-2"
       width="201.12921"
       height="56.930229"
       x="246.33839"
       y="478.24973"
       ry="0"
       transform="matrix(0.96993707,0.24335588,0,1,0,0)" />
    <rect
       style="display:inline;opacity:0.620991;fill:#a4ff98;fill-opacity:1;stroke:#2cd91e;stroke-width:26.2729;stroke-linecap:square;stroke-dasharray:none;stroke-dashoffset:0;stroke-opacity:1;paint-order:markers stroke fill"
       id="rect14984-3-69-2-8"
       width="201.12921"
       height="56.930229"
       x="11.868663"
       y="478.46475"
       ry="0"
       transform="matrix(0.96993707,0.24335588,0,1,0,0)" />
    <g
       sodipodi:type="inkscape:box3d"
       id="g14536"
       style="display:inline;fill:none;stroke:#819c27;stroke-width:27.9836;stroke-linecap:square;stroke-dasharray:none;stroke-dashoffset:0;paint-order:markers stroke fill"
       inkscape:perspectiveID="#perspective14564"
       inkscape:corner0="2.2680181 : 0.56243099 : 0 : 1"
       inkscape:corner7="0.56463228 : 0.3401378 : 0.25 : 1">
      <path
         sodipodi:type="inkscape:box3dside"
         id="path14548"
         style="fill:#e9e9ff;fill-rule:evenodd;stroke:none;stroke-width:27.9836;stroke-linecap:square;stroke-linejoin:round;stroke-dasharray:none;stroke-dashoffset:0;paint-order:markers stroke fill"
         inkscape:box3dsidetype="11"
         d="M 693.64765,734.94079 912.77732,614.2251 921.07269,736.44432 697.9265,797.9828 Z"
         points="912.77732,614.2251 921.07269,736.44432 697.9265,797.9828 693.64765,734.94079 " />
      <path
         sodipodi:type="inkscape:box3dside"
         id="path14538"
         style="fill:#353564;fill-rule:evenodd;stroke:none;stroke-width:27.9836;stroke-linecap:square;stroke-linejoin:round;stroke-dasharray:none;stroke-dashoffset:0;paint-order:markers stroke fill"
         inkscape:box3dsidetype="6"
         d="m 625.00582,730.97405 4.60616,67.86465 68.31452,-0.8559 -4.27885,-63.04201 z"
         points="629.61198,798.8387 697.9265,797.9828 693.64765,734.94079 625.00582,730.97405 " />
      <path
         sodipodi:type="inkscape:box3dside"
         id="path14540"
         style="fill:#4d4d9f;fill-rule:evenodd;stroke:none;stroke-width:27.9836;stroke-linecap:square;stroke-linejoin:round;stroke-dasharray:none;stroke-dashoffset:0;paint-order:markers stroke fill"
         inkscape:box3dsidetype="5"
         d="M 625.00582,730.97405 804.41937,586.65166 912.77732,614.2251 693.64765,734.94079 Z"
         points="804.41937,586.65166 912.77732,614.2251 693.64765,734.94079 625.00582,730.97405 " />
      <path
         sodipodi:type="inkscape:box3dside"
         id="path14546"
         style="fill:#020205;fill-opacity:1;fill-rule:evenodd;stroke:none;stroke-width:27.9836;stroke-linecap:square;stroke-linejoin:round;stroke-dasharray:none;stroke-dashoffset:0;paint-order:markers stroke fill"
         inkscape:box3dsidetype="13"
         d="m 629.61198,798.8387 184.4282,-70.4394 107.03251,8.04502 -223.14619,61.53848 z"
         points="814.04018,728.3993 921.07269,736.44432 697.9265,797.9828 629.61198,798.8387 " />
      <path
         sodipodi:type="inkscape:box3dside"
         id="path14544"
         style="fill:#d5d5ff;fill-opacity:1;fill-rule:evenodd;stroke:none;stroke-width:27.9836;stroke-linecap:square;stroke-linejoin:round;stroke-dasharray:none;stroke-dashoffset:0;paint-order:markers stroke fill"
         inkscape:box3dsidetype="14"
         d="m 804.41937,586.65166 9.62081,141.74764 107.03251,8.04502 -8.29537,-122.21922 z"
         points="814.04018,728.3993 921.07269,736.44432 912.77732,614.2251 804.41937,586.65166 " />
      <path
         sodipodi:type="inkscape:box3dside"
         id="path14542"
         style="fill:#57559f;fill-opacity:1;fill-rule:evenodd;stroke:none;stroke-width:27.9836;stroke-linecap:square;stroke-linejoin:round;stroke-dasharray:none;stroke-dashoffset:0;paint-order:markers stroke fill"
         inkscape:box3dsidetype="3"
         d="m 625.00582,730.97405 179.41355,-144.32239 9.62081,141.74764 -184.4282,70.4394 z"
         points="804.41937,586.65166 814.04018,728.3993 629.61198,798.8387 625.00582,730.97405 " />
    </g>
    <circle
       style="fill:#cd0000;fill-opacity:1;stroke-width:7.58792;stroke-linecap:round;stroke-linejoin:round"
       id="path1091"
       cx="272.8938"
       cy="412.09851"
       r="131.56038" />
    <circle
       style="display:inline;opacity:0.36887;fill:url(#pattern5240);fill-opacity:1;stroke-width:7.58792;stroke-linecap:round;stroke-linejoin:round"
       id="circle3268"
       cx="272.8938"
       cy="412.09851"
       r="131.56038" />
    <circle
       style="display:inline;fill:url(#radialGradient2536);fill-opacity:1;stroke-width:7.58792;stroke-linecap:round;stroke-linejoin:round"
       id="circle2216"
       r="131.56038"
       cy="412.09851"
       cx="272.8938" />
  </g>
  <g
     inkscape:groupmode="layer"
     id="layer2"
     inkscape:label="Calque 2"
     transform="translate(0.44445531)">
    <g
       aria-label="BRICK"
       transform="matrix(0.98037345,0,0,2.0165057,0.05565405,-108.54482)"
       id="text1776"
       style="font-weight:bold;font-size:100px;font-family:Unbounded;-inkscape-font-specification:'Unbounded Bold';white-space:pre;shape-inside:url(#rect1778);display:inline;opacity:0.991471;fill:#48fc85;stroke-width:8.23559;stroke-linecap:round;stroke-linejoin:round">
      <path
         d="m 105.44453,108.6142 1.7,-3.9 q 8.7,0.2 14.3,2.7 5.7,2.4 8.5,6.8 2.8,4.3 2.8,10 0,6.1 -2.8,10.9 -2.8,4.7 -8.4,7.5 -5.5,2.7 -13.8,2.7 H 52.344531 l 5.8,-38.5 -5.8,-36.499999 h 53.399999 q 10.4,0 16.2,4.9 5.8,4.8 5.8,13.4 0,4.7 -2.2,9 -2.2,4.299999 -7.1,7.299999 -4.8,2.9 -13,3.7 z m -32.599999,31.9 -8,-9.7 h 37.299999 q 4.5,0 7,-2.2 2.5,-2.2 2.5,-6.1 0,-3.9 -2.7,-6.2 -2.7,-2.4 -8,-2.4 H 70.144531 V 99.714201 h 28 q 3.599999,0 5.999999,-2.1 2.5,-2.2 2.5,-5.9 0,-3 -2.1,-4.9 -2.1,-2 -5.999999,-2 h -33.6 l 7.9,-9.7 5.1,31.699999 z"
         style="fill:#000000"
         id="path18669" />
      <path
         d="m 157.24447,103.1142 h 27.3 q 5,0 7.8,-2.3 2.8,-2.299999 2.8,-6.399999 0,-4.2 -2.8,-6.4 -2.8,-2.3 -7.8,-2.3 h -30.2 l 9.3,-9.9 V 145.3142 h -20.7 V 70.314201 h 44.5 q 8.6,0 15,3.1 6.4,3 10,8.4 3.6,5.3 3.6,12.6 0,7.099999 -3.6,12.499999 -3.6,5.4 -10,8.4 -6.4,3 -15,3 h -30.2 z m 11.2,7.1 h 23.3 l 26.9,35.1 h -24 z"
         style="fill:#000000"
         id="path18671" />
      <path
         d="m 227.94452,70.314201 h 20.7 V 145.3142 h -20.7 z"
         style="fill:#000000"
         id="path18673" />
      <path
         d="m 345.94453,113.9142 q -1.1,9.9 -6.8,17.4 -5.7,7.4 -15,11.5 -9.2,4.1 -21.2,4.1 -13.1,0 -22.9,-4.9 -9.8,-4.9 -15.3,-13.7 -5.4,-8.8 -5.4,-20.5 0,-11.699999 5.4,-20.499999 5.5,-8.8 15.3,-13.7 9.8,-4.9 22.9,-4.9 12,0 21.2,4.1 9.3,4.1 15,11.6 5.7,7.4 6.8,17.299999 h -20.8 q -1,-4.799999 -3.9,-8.099999 -2.9,-3.4 -7.6,-5.2 -4.6,-1.8 -10.7,-1.8 -7,0 -12.1,2.6 -5.1,2.5 -7.8,7.3 -2.7,4.699999 -2.7,11.299999 0,6.6 2.7,11.4 2.7,4.7 7.8,7.3 5.1,2.5 12.1,2.5 6.1,0 10.7,-1.7 4.7,-1.7 7.6,-5.1 2.9,-3.4 3.9,-8.3 z"
         style="fill:#000000"
         id="path18675" />
      <path
         d="M 356.04453,145.3142 V 70.314201 h 20.6 V 128.8142 l -5.5,-4.3 42.5,-54.199999 h 21.9 l -60.8,74.999999 z m 35.8,-35.8 15.2,-12.599999 29.5,48.399999 h -23.5 z"
         style="fill:#000000"
         id="path18677" />
    </g>
    <g
       aria-label="BREA"
       transform="matrix(1,0,0,1.8293415,352.64923,61.506416)"
       id="text5165"
       style="font-weight:bold;font-size:100px;font-family:Unbounded;-inkscape-font-specification:'Unbounded Bold';white-space:pre;shape-inside:url(#rect5167);display:inline;opacity:0.991471;fill:#48fc85;stroke-width:8.23559;stroke-linecap:round;stroke-linejoin:round">
      <path
         d="m 105.44453,108.6142 1.7,-3.9 q 8.7,0.2 14.3,2.7 5.7,2.4 8.5,6.8 2.8,4.3 2.8,10 0,6.1 -2.8,10.9 -2.8,4.7 -8.4,7.5 -5.5,2.7 -13.8,2.7 H 52.344531 l 5.8,-38.5 -5.8,-36.499999 h 53.399999 q 10.4,0 16.2,4.9 5.8,4.8 5.8,13.4 0,4.7 -2.2,9 -2.2,4.299999 -7.1,7.299999 -4.8,2.9 -13,3.7 z m -32.599999,31.9 -8,-9.7 h 37.299999 q 4.5,0 7,-2.2 2.5,-2.2 2.5,-6.1 0,-3.9 -2.7,-6.2 -2.7,-2.4 -8,-2.4 H 70.144531 V 99.714201 h 28 q 3.599999,0 5.999999,-2.1 2.5,-2.2 2.5,-5.9 0,-3 -2.1,-4.9 -2.1,-2 -5.999999,-2 h -33.6 l 7.9,-9.7 5.1,31.699999 z"
         style="fill:#000000"
         id="path18680" />
      <path
         d="m 157.24447,103.1142 h 27.3 q 5,0 7.8,-2.3 2.8,-2.299999 2.8,-6.399999 0,-4.2 -2.8,-6.4 -2.8,-2.3 -7.8,-2.3 h -30.2 l 9.3,-9.9 V 145.3142 h -20.7 V 70.314201 h 44.5 q 8.6,0 15,3.1 6.4,3 10,8.4 3.6,5.3 3.6,12.6 0,7.099999 -3.6,12.499999 -3.6,5.4 -10,8.4 -6.4,3 -15,3 h -30.2 z m 11.2,7.1 h 23.3 l 26.9,35.1 h -24 z"
         style="fill:#000000"
         id="path18682" />
      <path
         d="m 292.04452,100.3142 v 15 h -54.9 v -15 z m -40.8,7.5 -4.9,30.1 -8.4,-9.4 h 57.4 v 16.8 h -69.7 l 5.7,-37.5 -5.7,-37.499999 h 69.2 v 16.8 h -56.9 l 8.4,-9.4 z"
         style="fill:#000000"
         id="path18684" />
      <path
         d="m 320.50472,130.9142 v -16.7 h 51.7 v 16.7 z m 39.9,-60.599999 34.1,74.999999 h -22.1 l -28.6,-66.199999 h 6 l -28.7,66.199999 h -22.1 l 34.1,-74.999999 z"
         style="fill:#000000"
         id="path18686" />
    </g>
    <g
       aria-label="QUEER"
       transform="matrix(1.9791824,0,0,2.8754385,-356.81878,399.47755)"
       id="text5171"
       style="font-weight:bold;font-size:100px;font-family:Ithaca;-inkscape-font-specification:'Ithaca Bold';white-space:pre;shape-inside:url(#rect5173);display:inline;opacity:0.991471;fill:#42095e;stroke-width:8.23559;stroke-linecap:round;stroke-linejoin:round">
      <path
         d="m 585.23242,-6.7890625 h -6.25 v -6.2500005 h -6.25 v -6.249999 h -6.25 v -6.25 h -6.25 v -6.25 -6.25 -6.25 -6.25 -6.25 -6.25 -6.25 h 6.25 v -6.25 h 6.25 6.25 6.25 v 6.25 h 6.25 v 6.25 6.25 6.25 6.25 6.25 6.25 6.25 h -6.25 v 6.25 6.249999 h 6.25 v 6.2500005 z m -6.25,-18.7499995 v -6.25 -6.25 -6.25 -6.25 -6.25 -6.25 -6.25 h -6.25 v 6.25 6.25 6.25 6.25 6.25 6.25 6.25 z"
         id="path18689" />
      <path
         d="m 616.48242,-19.289062 h -6.25 -6.25 v -6.25 h -6.25 v -6.25 -6.25 -6.25 -6.25 -6.25 -6.25 -6.25 -6.25 h 6.25 6.25 v 6.25 6.25 6.25 6.25 6.25 6.25 6.25 6.25 h 6.25 v -6.25 -6.25 -6.25 -6.25 -6.25 -6.25 -6.25 -6.25 h 6.25 6.25 v 6.25 6.25 6.25 6.25 6.25 6.25 6.25 6.25 h -6.25 v 6.25 z"
         id="path18691" />
      <path
         d="m 660.23242,-25.539062 h 6.25 v 6.25 h -6.25 -6.25 -6.25 -6.25 -6.25 v -6.25 -6.25 -6.25 -6.25 -6.25 -6.25 -6.25 -6.25 -6.25 h 6.25 6.25 6.25 6.25 6.25 v 6.25 h -6.25 -6.25 -6.25 v 6.25 6.25 6.25 h 6.25 6.25 6.25 v 6.25 h -6.25 -6.25 -6.25 v 6.25 6.25 6.25 h 6.25 z"
         id="path18693" />
      <path
         d="m 697.73242,-25.539062 h 6.25 v 6.25 h -6.25 -6.25 -6.25 -6.25 -6.25 v -6.25 -6.25 -6.25 -6.25 -6.25 -6.25 -6.25 -6.25 -6.25 h 6.25 6.25 6.25 6.25 6.25 v 6.25 h -6.25 -6.25 -6.25 v 6.25 6.25 6.25 h 6.25 6.25 6.25 v 6.25 h -6.25 -6.25 -6.25 v 6.25 6.25 6.25 h 6.25 z"
         id="path18695" />
      <path
         d="m 735.23242,-19.289062 h -6.25 v -6.25 -6.25 -6.25 -6.25 h -6.25 v 6.25 6.25 6.25 6.25 h -6.25 -6.25 v -6.25 -6.25 -6.25 -6.25 -6.25 -6.25 -6.25 -6.25 -6.25 h 6.25 6.25 6.25 6.25 v 6.25 h 6.25 v 6.25 6.25 6.25 h -6.25 v 6.25 h 6.25 v 6.25 6.25 6.25 6.25 z m -6.25,-31.25 v -6.25 -6.25 -6.25 h -6.25 v 6.25 6.25 6.25 z"
         id="path18697" />
    </g>
  </g>
</svg>
